<mxfile host="app.diagrams.net" modified="2024-06-25T08:52:28.760Z" agent="Mozilla/5.0 (Macintosh; Intel Mac OS X 10_15_7) AppleWebKit/537.36 (KHTML, like Gecko) Chrome/125.0.0.0 Safari/537.36" etag="8_-IggyQcMDzg7E8A1ib" version="24.6.2" type="device">
  <diagram name="Page-1" id="miL9ahDKP_SdMZ3NeT0o">
    <mxGraphModel dx="556" dy="476" grid="1" gridSize="10" guides="1" tooltips="1" connect="1" arrows="1" fold="1" page="1" pageScale="1" pageWidth="1169" pageHeight="827" math="0" shadow="0">
      <root>
        <mxCell id="0" />
        <mxCell id="1" parent="0" />
        <mxCell id="2" value="Zaposlenik" style="rounded=0;whiteSpace=wrap;html=1;" parent="1" vertex="1">
          <mxGeometry x="400" y="80" width="130" height="80" as="geometry" />
        </mxCell>
        <mxCell id="6T_XoxqwyEMNl90P7o1k-63" style="edgeStyle=none;curved=1;rounded=0;orthogonalLoop=1;jettySize=auto;html=1;exitX=0.75;exitY=0;exitDx=0;exitDy=0;entryX=0.75;entryY=1;entryDx=0;entryDy=0;fontSize=12;startSize=8;endSize=8;" parent="1" source="3" target="2" edge="1">
          <mxGeometry relative="1" as="geometry" />
        </mxCell>
        <mxCell id="6T_XoxqwyEMNl90P7o1k-83" value="Pregled&amp;nbsp;&lt;div&gt;radnih sati&lt;/div&gt;" style="edgeLabel;html=1;align=center;verticalAlign=middle;resizable=0;points=[];fontSize=12;" parent="6T_XoxqwyEMNl90P7o1k-63" vertex="1" connectable="0">
          <mxGeometry x="-0.05" y="1" relative="1" as="geometry">
            <mxPoint x="14" as="offset" />
          </mxGeometry>
        </mxCell>
        <mxCell id="3" value="&lt;div&gt;&lt;br&gt;&lt;/div&gt;Unos radnih sati i aktivnosti" style="rounded=1;whiteSpace=wrap;html=1;" parent="1" vertex="1">
          <mxGeometry x="400" y="240" width="130" height="90" as="geometry" />
        </mxCell>
        <mxCell id="6T_XoxqwyEMNl90P7o1k-79" style="edgeStyle=none;curved=1;rounded=0;orthogonalLoop=1;jettySize=auto;html=1;exitX=0.75;exitY=1;exitDx=0;exitDy=0;entryX=0.25;entryY=0;entryDx=0;entryDy=0;fontSize=12;startSize=8;endSize=8;" parent="1" source="4" target="10" edge="1">
          <mxGeometry relative="1" as="geometry" />
        </mxCell>
        <mxCell id="6T_XoxqwyEMNl90P7o1k-81" value="Broj radnih sati i&amp;nbsp;&lt;div&gt;aktivnosti&lt;/div&gt;" style="edgeLabel;html=1;align=center;verticalAlign=middle;resizable=0;points=[];fontSize=12;" parent="6T_XoxqwyEMNl90P7o1k-79" vertex="1" connectable="0">
          <mxGeometry x="0.0787" y="-4" relative="1" as="geometry">
            <mxPoint x="-22" as="offset" />
          </mxGeometry>
        </mxCell>
        <mxCell id="4" value="DB1 Baza radnih sati i aktivnosti" style="rounded=0;whiteSpace=wrap;html=1;" parent="1" vertex="1">
          <mxGeometry x="624" y="270" width="160" height="30" as="geometry" />
        </mxCell>
        <mxCell id="6T_XoxqwyEMNl90P7o1k-60" value="&lt;div&gt;Podaci o &lt;br&gt;zaposleniku&lt;/div&gt;" style="edgeStyle=none;curved=1;rounded=0;orthogonalLoop=1;jettySize=auto;html=1;entryX=0;entryY=0.33;entryDx=0;entryDy=0;fontSize=12;startSize=8;endSize=8;exitX=1.002;exitY=0.543;exitDx=0;exitDy=0;exitPerimeter=0;entryPerimeter=0;" parent="1" source="8" target="6T_XoxqwyEMNl90P7o1k-58" edge="1">
          <mxGeometry relative="1" as="geometry" />
        </mxCell>
        <mxCell id="6T_XoxqwyEMNl90P7o1k-64" style="edgeStyle=none;curved=1;rounded=0;orthogonalLoop=1;jettySize=auto;html=1;exitX=0.75;exitY=0;exitDx=0;exitDy=0;entryX=0.75;entryY=1;entryDx=0;entryDy=0;fontSize=12;startSize=8;endSize=8;" parent="1" edge="1">
          <mxGeometry relative="1" as="geometry">
            <mxPoint x="464.5" y="510" as="sourcePoint" />
            <mxPoint x="464.5" y="450" as="targetPoint" />
          </mxGeometry>
        </mxCell>
        <mxCell id="6T_XoxqwyEMNl90P7o1k-71" value="Rezultati&amp;nbsp;&lt;div&gt;unosa&lt;/div&gt;" style="edgeLabel;html=1;align=center;verticalAlign=middle;resizable=0;points=[];fontSize=12;" parent="6T_XoxqwyEMNl90P7o1k-64" vertex="1" connectable="0">
          <mxGeometry x="0.0278" y="-5" relative="1" as="geometry">
            <mxPoint x="-9" y="1" as="offset" />
          </mxGeometry>
        </mxCell>
        <mxCell id="8" value="&amp;nbsp;&lt;div&gt;Unos i pregled podataka o zaposlenicima&lt;/div&gt;" style="rounded=1;whiteSpace=wrap;html=1;" parent="1" vertex="1">
          <mxGeometry x="400" y="510" width="130" height="90" as="geometry" />
        </mxCell>
        <mxCell id="6T_XoxqwyEMNl90P7o1k-78" style="edgeStyle=none;curved=1;rounded=0;orthogonalLoop=1;jettySize=auto;html=1;exitX=0.5;exitY=0;exitDx=0;exitDy=0;entryX=1;entryY=1;entryDx=0;entryDy=0;fontSize=12;startSize=8;endSize=8;" parent="1" source="10" target="4" edge="1">
          <mxGeometry relative="1" as="geometry" />
        </mxCell>
        <mxCell id="6T_XoxqwyEMNl90P7o1k-80" value="Upit" style="edgeLabel;html=1;align=center;verticalAlign=middle;resizable=0;points=[];fontSize=12;" parent="6T_XoxqwyEMNl90P7o1k-78" vertex="1" connectable="0">
          <mxGeometry x="0.0905" y="-1" relative="1" as="geometry">
            <mxPoint as="offset" />
          </mxGeometry>
        </mxCell>
        <mxCell id="6T_XoxqwyEMNl90P7o1k-85" style="edgeStyle=none;curved=1;rounded=0;orthogonalLoop=1;jettySize=auto;html=1;exitX=0;exitY=0.75;exitDx=0;exitDy=0;entryX=0.5;entryY=0;entryDx=0;entryDy=0;fontSize=12;startSize=8;endSize=8;" parent="1" source="10" target="6T_XoxqwyEMNl90P7o1k-58" edge="1">
          <mxGeometry relative="1" as="geometry" />
        </mxCell>
        <mxCell id="6T_XoxqwyEMNl90P7o1k-86" value="Zahtjev liste zaposlenika" style="edgeLabel;html=1;align=center;verticalAlign=middle;resizable=0;points=[];fontSize=12;" parent="6T_XoxqwyEMNl90P7o1k-85" vertex="1" connectable="0">
          <mxGeometry x="0.131" y="-1" relative="1" as="geometry">
            <mxPoint as="offset" />
          </mxGeometry>
        </mxCell>
        <mxCell id="10" value="&lt;div&gt;&lt;br&gt;&lt;/div&gt;&lt;div&gt;&lt;br&gt;&lt;/div&gt;&amp;nbsp;Generiranje i&lt;span style=&quot;background-color: initial;&quot;&gt;zvještaja&lt;/span&gt;" style="rounded=1;whiteSpace=wrap;html=1;" parent="1" vertex="1">
          <mxGeometry x="770" y="410" width="130" height="90" as="geometry" />
        </mxCell>
        <mxCell id="12" value="Menadžer" style="rounded=0;whiteSpace=wrap;html=1;" parent="1" vertex="1">
          <mxGeometry x="1000" y="415" width="130" height="80" as="geometry" />
        </mxCell>
        <mxCell id="13" value="" style="endArrow=block;endFill=1;" parent="1" edge="1">
          <mxGeometry relative="1" as="geometry">
            <mxPoint x="430" y="160" as="sourcePoint" />
            <mxPoint x="430" y="240" as="targetPoint" />
          </mxGeometry>
        </mxCell>
        <mxCell id="6T_XoxqwyEMNl90P7o1k-82" value="Radni sati i&amp;nbsp;&lt;div&gt;aktivnosti&lt;/div&gt;" style="edgeLabel;html=1;align=center;verticalAlign=middle;resizable=0;points=[];fontSize=12;" parent="13" vertex="1" connectable="0">
          <mxGeometry x="-0.05" y="-3" relative="1" as="geometry">
            <mxPoint as="offset" />
          </mxGeometry>
        </mxCell>
        <mxCell id="14" value="" style="endArrow=block;endFill=1;" parent="1" source="3" target="4" edge="1">
          <mxGeometry relative="1" as="geometry" />
        </mxCell>
        <mxCell id="6T_XoxqwyEMNl90P7o1k-74" value="Radni sati&lt;div&gt;&amp;nbsp;i aktivnosti&lt;/div&gt;" style="edgeLabel;html=1;align=center;verticalAlign=middle;resizable=0;points=[];fontSize=12;" parent="14" vertex="1" connectable="0">
          <mxGeometry x="-0.4078" y="1" relative="1" as="geometry">
            <mxPoint x="12" y="1" as="offset" />
          </mxGeometry>
        </mxCell>
        <mxCell id="17" value="" style="endArrow=block;endFill=1;exitX=0.5;exitY=1;exitDx=0;exitDy=0;" parent="1" edge="1">
          <mxGeometry relative="1" as="geometry">
            <mxPoint x="410" y="450" as="sourcePoint" />
            <mxPoint x="410" y="510" as="targetPoint" />
          </mxGeometry>
        </mxCell>
        <mxCell id="6T_XoxqwyEMNl90P7o1k-75" value="Podaci o&lt;div&gt;&amp;nbsp;zaposlenicima&lt;/div&gt;" style="edgeLabel;html=1;align=center;verticalAlign=middle;resizable=0;points=[];fontSize=12;" parent="17" vertex="1" connectable="0">
          <mxGeometry x="-0.0667" y="-2" relative="1" as="geometry">
            <mxPoint x="-18" as="offset" />
          </mxGeometry>
        </mxCell>
        <mxCell id="19" value="" style="endArrow=block;endFill=1;exitX=1;exitY=0.5;exitDx=0;exitDy=0;" parent="1" source="6T_XoxqwyEMNl90P7o1k-58" target="10" edge="1">
          <mxGeometry relative="1" as="geometry">
            <mxPoint x="780" y="529.6551724137933" as="sourcePoint" />
          </mxGeometry>
        </mxCell>
        <mxCell id="6T_XoxqwyEMNl90P7o1k-84" value="Zaposlenici" style="edgeLabel;html=1;align=center;verticalAlign=middle;resizable=0;points=[];fontSize=12;" parent="19" vertex="1" connectable="0">
          <mxGeometry x="-0.2596" y="-4" relative="1" as="geometry">
            <mxPoint x="-1" y="-11" as="offset" />
          </mxGeometry>
        </mxCell>
        <mxCell id="20" value="" style="endArrow=block;endFill=1;entryX=0;entryY=0.5;entryDx=0;entryDy=0;" parent="1" edge="1">
          <mxGeometry relative="1" as="geometry">
            <mxPoint x="900" y="439.9999999999999" as="sourcePoint" />
            <mxPoint x="1000" y="440.0000000000001" as="targetPoint" />
          </mxGeometry>
        </mxCell>
        <mxCell id="6T_XoxqwyEMNl90P7o1k-76" style="edgeStyle=none;curved=1;rounded=0;orthogonalLoop=1;jettySize=auto;html=1;exitX=0.75;exitY=1;exitDx=0;exitDy=0;entryX=0.75;entryY=0;entryDx=0;entryDy=0;fontSize=12;startSize=8;endSize=8;" parent="1" source="6T_XoxqwyEMNl90P7o1k-57" target="8" edge="1">
          <mxGeometry relative="1" as="geometry" />
        </mxCell>
        <mxCell id="6T_XoxqwyEMNl90P7o1k-77" value="Pregled&amp;nbsp;&lt;div&gt;rezultata&lt;/div&gt;" style="edgeLabel;html=1;align=center;verticalAlign=middle;resizable=0;points=[];fontSize=12;" parent="6T_XoxqwyEMNl90P7o1k-76" vertex="1" connectable="0">
          <mxGeometry x="0.1" y="4" relative="1" as="geometry">
            <mxPoint x="19" as="offset" />
          </mxGeometry>
        </mxCell>
        <mxCell id="6T_XoxqwyEMNl90P7o1k-57" value="HR odjel" style="rounded=0;whiteSpace=wrap;html=1;" parent="1" vertex="1">
          <mxGeometry x="400" y="370" width="130" height="80" as="geometry" />
        </mxCell>
        <mxCell id="6T_XoxqwyEMNl90P7o1k-58" value="DB2 Baza podataka o zaposlenicima" style="rounded=0;whiteSpace=wrap;html=1;" parent="1" vertex="1">
          <mxGeometry x="640" y="550" width="160" height="30" as="geometry" />
        </mxCell>
        <mxCell id="6T_XoxqwyEMNl90P7o1k-65" style="edgeStyle=none;curved=1;rounded=0;orthogonalLoop=1;jettySize=auto;html=1;exitX=0;exitY=0.75;exitDx=0;exitDy=0;fontSize=12;startSize=8;endSize=8;" parent="1" source="12" edge="1">
          <mxGeometry relative="1" as="geometry">
            <mxPoint x="900" y="475" as="targetPoint" />
          </mxGeometry>
        </mxCell>
        <mxCell id="6T_XoxqwyEMNl90P7o1k-98" value="Zahtjev za&lt;br&gt;izvještaj" style="edgeLabel;html=1;align=center;verticalAlign=middle;resizable=0;points=[];fontSize=12;" parent="6T_XoxqwyEMNl90P7o1k-65" vertex="1" connectable="0">
          <mxGeometry x="-0.1" y="-1" relative="1" as="geometry">
            <mxPoint as="offset" />
          </mxGeometry>
        </mxCell>
        <mxCell id="6T_XoxqwyEMNl90P7o1k-87" value="" style="endArrow=none;html=1;rounded=0;fontSize=12;startSize=8;endSize=8;curved=1;exitX=0;exitY=0.25;exitDx=0;exitDy=0;entryX=1;entryY=0.25;entryDx=0;entryDy=0;" parent="1" source="3" target="3" edge="1">
          <mxGeometry width="50" height="50" relative="1" as="geometry">
            <mxPoint x="750" y="350" as="sourcePoint" />
            <mxPoint x="800" y="300" as="targetPoint" />
          </mxGeometry>
        </mxCell>
        <mxCell id="6T_XoxqwyEMNl90P7o1k-89" value="" style="endArrow=none;html=1;rounded=0;fontSize=12;startSize=8;endSize=8;curved=1;exitX=0;exitY=0.25;exitDx=0;exitDy=0;entryX=1;entryY=0.25;entryDx=0;entryDy=0;" parent="1" edge="1">
          <mxGeometry width="50" height="50" relative="1" as="geometry">
            <mxPoint x="400" y="540" as="sourcePoint" />
            <mxPoint x="530" y="540" as="targetPoint" />
          </mxGeometry>
        </mxCell>
        <mxCell id="6T_XoxqwyEMNl90P7o1k-90" value="" style="endArrow=none;html=1;rounded=0;fontSize=12;startSize=8;endSize=8;curved=1;exitX=0;exitY=0.25;exitDx=0;exitDy=0;entryX=1;entryY=0.25;entryDx=0;entryDy=0;" parent="1" edge="1">
          <mxGeometry width="50" height="50" relative="1" as="geometry">
            <mxPoint x="770" y="440" as="sourcePoint" />
            <mxPoint x="900" y="440" as="targetPoint" />
          </mxGeometry>
        </mxCell>
        <mxCell id="6T_XoxqwyEMNl90P7o1k-91" value="&lt;b&gt;P1&lt;/b&gt;" style="text;html=1;align=center;verticalAlign=middle;resizable=0;points=[];autosize=1;strokeColor=none;fillColor=none;fontSize=16;" parent="1" vertex="1">
          <mxGeometry x="445" y="240" width="40" height="30" as="geometry" />
        </mxCell>
        <mxCell id="6T_XoxqwyEMNl90P7o1k-92" value="&lt;b&gt;P2&lt;/b&gt;" style="text;html=1;align=center;verticalAlign=middle;resizable=0;points=[];autosize=1;strokeColor=none;fillColor=none;fontSize=16;" parent="1" vertex="1">
          <mxGeometry x="440" y="510" width="40" height="30" as="geometry" />
        </mxCell>
        <mxCell id="6T_XoxqwyEMNl90P7o1k-93" value="&lt;b&gt;P4&lt;/b&gt;" style="text;html=1;align=center;verticalAlign=middle;resizable=0;points=[];autosize=1;strokeColor=none;fillColor=none;fontSize=16;" parent="1" vertex="1">
          <mxGeometry x="815" y="415" width="40" height="30" as="geometry" />
        </mxCell>
        <mxCell id="6T_XoxqwyEMNl90P7o1k-94" value="DB4 Baza podataka izvještaja" style="rounded=0;whiteSpace=wrap;html=1;" parent="1" vertex="1">
          <mxGeometry x="860" y="280" width="160" height="30" as="geometry" />
        </mxCell>
        <mxCell id="6T_XoxqwyEMNl90P7o1k-95" style="edgeStyle=none;curved=1;rounded=0;orthogonalLoop=1;jettySize=auto;html=1;exitX=0.75;exitY=0;exitDx=0;exitDy=0;entryX=0.438;entryY=1.083;entryDx=0;entryDy=0;entryPerimeter=0;fontSize=12;startSize=8;endSize=8;" parent="1" source="10" target="6T_XoxqwyEMNl90P7o1k-94" edge="1">
          <mxGeometry relative="1" as="geometry" />
        </mxCell>
        <mxCell id="6T_XoxqwyEMNl90P7o1k-96" value="Generiran izvještaj" style="edgeLabel;html=1;align=center;verticalAlign=middle;resizable=0;points=[];fontSize=12;" parent="6T_XoxqwyEMNl90P7o1k-95" vertex="1" connectable="0">
          <mxGeometry x="0.0917" y="8" relative="1" as="geometry">
            <mxPoint as="offset" />
          </mxGeometry>
        </mxCell>
        <mxCell id="6T_XoxqwyEMNl90P7o1k-97" value="Izvještaj" style="edgeLabel;html=1;align=center;verticalAlign=middle;resizable=0;points=[];fontSize=12;" parent="1" vertex="1" connectable="0">
          <mxGeometry x="929.9991183695367" y="379.99718183619075" as="geometry">
            <mxPoint x="8" y="48" as="offset" />
          </mxGeometry>
        </mxCell>
        <mxCell id="ofJV5FoJ1ODPwUBLiDk7-20" style="edgeStyle=none;curved=1;rounded=0;orthogonalLoop=1;jettySize=auto;html=1;exitX=1;exitY=0.5;exitDx=0;exitDy=0;fontSize=12;startSize=8;endSize=8;entryX=0;entryY=0.5;entryDx=0;entryDy=0;" parent="1" source="ofJV5FoJ1ODPwUBLiDk7-22" target="6T_XoxqwyEMNl90P7o1k-57" edge="1">
          <mxGeometry relative="1" as="geometry">
            <mxPoint x="274.5" y="370" as="sourcePoint" />
            <mxPoint x="275" y="310" as="targetPoint" />
          </mxGeometry>
        </mxCell>
        <mxCell id="ofJV5FoJ1ODPwUBLiDk7-21" value="Rezultati&amp;nbsp;&lt;div&gt;unosa&lt;/div&gt;" style="edgeLabel;html=1;align=center;verticalAlign=middle;resizable=0;points=[];fontSize=12;" parent="ofJV5FoJ1ODPwUBLiDk7-20" vertex="1" connectable="0">
          <mxGeometry x="0.0278" y="-5" relative="1" as="geometry">
            <mxPoint x="-9" y="1" as="offset" />
          </mxGeometry>
        </mxCell>
        <mxCell id="ofJV5FoJ1ODPwUBLiDk7-22" value="&amp;nbsp;&lt;div&gt;Unos i pregled podataka o projektima&lt;/div&gt;" style="rounded=1;whiteSpace=wrap;html=1;" parent="1" vertex="1">
          <mxGeometry x="165" y="370" width="130" height="90" as="geometry" />
        </mxCell>
        <mxCell id="ofJV5FoJ1ODPwUBLiDk7-23" value="" style="endArrow=block;endFill=1;entryX=1;entryY=0.25;entryDx=0;entryDy=0;" parent="1" target="ofJV5FoJ1ODPwUBLiDk7-22" edge="1">
          <mxGeometry relative="1" as="geometry">
            <mxPoint x="400" y="393" as="sourcePoint" />
            <mxPoint x="220" y="370" as="targetPoint" />
          </mxGeometry>
        </mxCell>
        <mxCell id="ofJV5FoJ1ODPwUBLiDk7-29" value="Podaci&amp;nbsp;&lt;div&gt;o projektu&lt;/div&gt;" style="edgeLabel;html=1;align=center;verticalAlign=middle;resizable=0;points=[];fontSize=12;" parent="ofJV5FoJ1ODPwUBLiDk7-23" vertex="1" connectable="0">
          <mxGeometry x="-0.1538" relative="1" as="geometry">
            <mxPoint y="-13" as="offset" />
          </mxGeometry>
        </mxCell>
        <mxCell id="ofJV5FoJ1ODPwUBLiDk7-25" style="edgeStyle=none;curved=1;rounded=0;orthogonalLoop=1;jettySize=auto;html=1;exitX=-0.003;exitY=0.879;exitDx=0;exitDy=0;fontSize=12;startSize=8;endSize=8;exitPerimeter=0;" parent="1" source="6T_XoxqwyEMNl90P7o1k-57" edge="1">
          <mxGeometry relative="1" as="geometry">
            <mxPoint x="308" y="310" as="sourcePoint" />
            <mxPoint x="310" y="438" as="targetPoint" />
          </mxGeometry>
        </mxCell>
        <mxCell id="ofJV5FoJ1ODPwUBLiDk7-26" value="Pregled&amp;nbsp;&lt;div&gt;rezultata&lt;/div&gt;" style="edgeLabel;html=1;align=center;verticalAlign=middle;resizable=0;points=[];fontSize=12;" parent="ofJV5FoJ1ODPwUBLiDk7-25" vertex="1" connectable="0">
          <mxGeometry x="0.1" y="4" relative="1" as="geometry">
            <mxPoint x="19" as="offset" />
          </mxGeometry>
        </mxCell>
        <mxCell id="ofJV5FoJ1ODPwUBLiDk7-27" value="" style="endArrow=none;html=1;rounded=0;fontSize=12;startSize=8;endSize=8;curved=1;exitX=0;exitY=0.25;exitDx=0;exitDy=0;entryX=1;entryY=0.25;entryDx=0;entryDy=0;" parent="1" edge="1">
          <mxGeometry width="50" height="50" relative="1" as="geometry">
            <mxPoint x="165" y="400" as="sourcePoint" />
            <mxPoint x="295" y="400" as="targetPoint" />
          </mxGeometry>
        </mxCell>
        <mxCell id="ofJV5FoJ1ODPwUBLiDk7-33" value="" style="edgeStyle=none;curved=1;rounded=0;orthogonalLoop=1;jettySize=auto;html=1;fontSize=12;startSize=8;endSize=8;entryX=0.75;entryY=1;entryDx=0;entryDy=0;exitX=0.75;exitY=0;exitDx=0;exitDy=0;" parent="1" source="ofJV5FoJ1ODPwUBLiDk7-22" target="ofJV5FoJ1ODPwUBLiDk7-31" edge="1">
          <mxGeometry relative="1" as="geometry">
            <mxPoint x="245" y="300" as="targetPoint" />
          </mxGeometry>
        </mxCell>
        <mxCell id="ofJV5FoJ1ODPwUBLiDk7-34" value="Projekti" style="edgeLabel;html=1;align=center;verticalAlign=middle;resizable=0;points=[];fontSize=12;" parent="ofJV5FoJ1ODPwUBLiDk7-33" vertex="1" connectable="0">
          <mxGeometry x="-0.1516" y="1" relative="1" as="geometry">
            <mxPoint x="21" y="-11" as="offset" />
          </mxGeometry>
        </mxCell>
        <mxCell id="ofJV5FoJ1ODPwUBLiDk7-28" value="&lt;b&gt;P3&lt;/b&gt;" style="text;html=1;align=center;verticalAlign=middle;resizable=0;points=[];autosize=1;strokeColor=none;fillColor=none;fontSize=16;" parent="1" vertex="1">
          <mxGeometry x="210" y="370" width="40" height="30" as="geometry" />
        </mxCell>
        <mxCell id="ofJV5FoJ1ODPwUBLiDk7-32" style="edgeStyle=none;curved=1;rounded=0;orthogonalLoop=1;jettySize=auto;html=1;exitX=0.25;exitY=1;exitDx=0;exitDy=0;entryX=0.25;entryY=0;entryDx=0;entryDy=0;fontSize=12;startSize=8;endSize=8;" parent="1" source="ofJV5FoJ1ODPwUBLiDk7-31" target="ofJV5FoJ1ODPwUBLiDk7-22" edge="1">
          <mxGeometry relative="1" as="geometry" />
        </mxCell>
        <mxCell id="ofJV5FoJ1ODPwUBLiDk7-35" value="Zahtjev liste&amp;nbsp;&lt;div&gt;projekata&lt;/div&gt;" style="edgeLabel;html=1;align=center;verticalAlign=middle;resizable=0;points=[];fontSize=12;" parent="ofJV5FoJ1ODPwUBLiDk7-32" vertex="1" connectable="0">
          <mxGeometry x="-0.154" y="1" relative="1" as="geometry">
            <mxPoint y="1" as="offset" />
          </mxGeometry>
        </mxCell>
        <mxCell id="ofJV5FoJ1ODPwUBLiDk7-31" value="DB3 Baza podataka o projektima" style="rounded=0;whiteSpace=wrap;html=1;" parent="1" vertex="1">
          <mxGeometry x="150" y="270" width="160" height="30" as="geometry" />
        </mxCell>
      </root>
    </mxGraphModel>
  </diagram>
</mxfile>
